<svg width="32" height="32" viewBox="0 0 32 32" fill="none" xmlns="http://www.w3.org/2000/svg">
<g clip-path="url(#clip0_4819_525)">
<path d="M21.4921 21.4806C22.3092 20.958 23.3387 20.8822 24.2323 21.2608C26.6915 22.3032 28.8376 23.9444 30.4862 26.0001C27.5535 29.6563 23.0516 31.9999 17.9999 32.0001C12.9487 32.0001 8.4464 29.6563 5.51367 26.0001C7.16226 23.9444 9.3077 22.3032 11.7675 21.2608C12.6611 20.8823 13.6906 20.9579 14.5078 21.4806C15.5163 22.1253 16.714 22.5001 17.9999 22.5001C19.2857 22.5 20.4836 22.1252 21.4921 21.4806ZM23.452 23.1026C23.1863 22.99 22.8977 23.0012 22.6649 23.1114L22.5692 23.1651C21.2502 24.0083 19.6805 24.5 17.9999 24.5001C16.424 24.5001 14.9459 24.0682 13.6806 23.3194L13.4306 23.1651C13.1846 23.0078 12.8513 22.974 12.5478 23.1026C10.9223 23.7914 9.45177 24.7796 8.20701 25.9991C10.734 28.4755 14.1882 30.0001 17.9999 30.0001C21.8115 30 25.2641 28.4748 27.7909 25.9991C26.6491 24.8808 25.3181 23.9562 23.8514 23.2794L23.452 23.1026Z" fill="white"/>
<path d="M18 0C23.0511 0.000116519 27.5527 2.34385 30.4854 6C28.8368 8.05566 26.6916 9.6969 24.2324 10.7393C23.3389 11.1178 22.3087 11.042 21.4922 10.5195C20.4831 9.87485 19.2858 9.50007 18 9.5C17.3663 9.5 16.7535 9.59018 16.1748 9.75977C15.0479 9.96264 13.8886 9.77057 12.749 9.31738C13.6416 8.61505 14.6775 8.08688 15.8066 7.78613C16.5097 7.59838 17.2456 7.5 18 7.5C19.5753 7.50009 21.0526 7.93213 22.3184 8.68066L22.5693 8.83398L22.5703 8.83496C22.8159 8.99208 23.1491 9.02583 23.4521 8.89746L23.8516 8.7207C25.3182 8.04383 26.6491 7.11883 27.791 6C25.2642 3.52424 21.811 2.0001 18 2C17.8352 2 17.6712 2.00412 17.5078 2.00977C17.4531 2.01166 17.3983 2.01311 17.3438 2.01562C17.1852 2.02294 17.0273 2.03237 16.8701 2.04492C16.8365 2.0476 16.803 2.05079 16.7695 2.05371C16.6207 2.06667 16.4726 2.08203 16.3252 2.09961C16.2959 2.1031 16.2665 2.1057 16.2373 2.10938C16.0772 2.12948 15.9181 2.15324 15.7598 2.17871C15.7164 2.18569 15.6731 2.19282 15.6299 2.2002C15.4662 2.22811 15.3033 2.25844 15.1416 2.29199C15.1357 2.29321 15.1299 2.29467 15.124 2.2959C14.9562 2.33094 14.7896 2.36917 14.624 2.41016C14.6049 2.4149 14.5855 2.419 14.5664 2.42383C14.4077 2.46385 14.2503 2.50735 14.0938 2.55273C14.0536 2.5644 14.0137 2.57686 13.9736 2.58887C13.6469 2.68681 13.325 2.79533 13.0088 2.91602C12.998 2.92014 12.9873 2.92456 12.9766 2.92871C12.8133 2.99151 12.6515 3.05731 12.4912 3.12598C12.4785 3.13144 12.4658 3.13708 12.4531 3.14258C10.8206 3.8478 9.34884 4.85428 8.1084 6.09277C7.59387 5.58583 7.13638 5.08408 6.75098 4.62695C9.64108 1.76744 13.6136 0 18 0Z" fill="white"/>
<path d="M9.50977 15.582C9.56194 14.5118 9.8149 13.4951 10.2275 12.5664C9.25594 12.0834 8.36944 11.5089 7.58984 10.9238C6.9085 10.4125 6.2749 9.86687 5.69629 9.32227C4.70576 11.1396 4.10638 13.1992 4.0127 15.3926L4 16C4 17.3636 4.19684 18.6796 4.56055 19.9238C6.06481 18.6636 7.74237 17.6136 9.54102 16.8184C9.51447 16.5498 9.5 16.2769 9.5 16L9.50977 15.582ZM11.5 16C11.5 16.7585 11.6366 17.4834 11.876 18.1602C11.444 18.2384 11.0208 18.3602 10.6113 18.5332C8.02347 19.6301 5.69622 21.3113 3.82422 23.418C2.66107 21.2006 2 18.6778 2 16C2.00002 12.2772 3.27396 8.85423 5.40723 6.13672C6.28289 7.14892 7.44448 8.31441 8.79004 9.32422C10.0754 10.2889 11.5992 11.1604 13.2451 11.5791C12.1642 12.738 11.5 14.2895 11.5 16Z" fill="#48EFCF"/>
</g>
<defs>
<clipPath id="clip0_4819_525">
<rect width="32" height="32" fill="white"/>
</clipPath>
</defs>
</svg>
