<svg width="32" height="32" viewBox="0 0 32 32" fill="none" xmlns="http://www.w3.org/2000/svg">
<g clip-path="url(#clip0_4321_149845)">
<path fill-rule="evenodd" clip-rule="evenodd" d="M16 13C14.346 13 13 14.346 13 16C13 17.654 14.346 19 16 19C17.654 19 19 17.654 19 16C19 14.346 17.654 13 16 13ZM16 21C13.243 21 11 18.757 11 16C11 13.243 13.243 11 16 11C18.757 11 21 13.243 21 16C21 18.757 18.757 21 16 21Z" fill="#48EFCF"/>
<path fill-rule="evenodd" clip-rule="evenodd" d="M14 30H18V27.939C18 26.751 18.714 25.689 19.82 25.236C20.941 24.773 22.191 25.02 23.029 25.857L24.485 27.313L27.314 24.485L25.857 23.028C25.021 22.192 24.773 20.94 25.227 19.841C25.69 18.714 26.751 18 27.94 18H30V14H27.94C26.751 14 25.69 13.286 25.236 12.181C24.773 11.06 25.021 9.808 25.857 8.972L27.314 7.515L24.485 4.687L23.028 6.143C22.192 6.979 20.941 7.228 19.841 6.772C18.714 6.311 18 5.249 18 4.061V2H14V4.061C14 5.249 13.286 6.311 12.18 6.764C11.06 7.227 9.808 6.979 8.971 6.143L7.515 4.687L4.686 7.515L6.143 8.972C6.979 9.808 7.227 11.06 6.773 12.159C6.31 13.286 5.249 14 4.06 14H2V18H4.06C5.249 18 6.31 18.714 6.764 19.819C7.227 20.94 6.979 22.192 6.143 23.028L4.686 24.485L7.515 27.313L8.972 25.857C9.809 25.021 11.061 24.773 12.159 25.228C13.286 25.689 14 26.751 14 27.939V30ZM20 32H12V27.939C12 27.565 11.773 27.23 11.421 27.086C11.045 26.931 10.649 27.007 10.386 27.271L7.515 30.142L1.858 24.485L4.729 21.614C4.992 21.351 5.069 20.954 4.924 20.604C4.77 20.228 4.434 20 4.06 20H0V12H4.06C4.434 12 4.77 11.772 4.914 11.421C5.069 11.046 4.992 10.649 4.729 10.386L1.858 7.515L7.515 1.858L10.386 4.729C10.649 4.991 11.045 5.068 11.395 4.925C11.773 4.77 12 4.435 12 4.061V0H20V4.061C20 4.435 20.227 4.77 20.579 4.914C20.956 5.07 21.351 4.993 21.614 4.729L24.485 1.858L30.142 7.515L27.271 10.386C27.008 10.649 26.931 11.046 27.076 11.396C27.23 11.772 27.566 12 27.94 12H32V20H27.94C27.566 20 27.23 20.228 27.086 20.579C26.931 20.954 27.008 21.351 27.271 21.614L30.142 24.485L24.485 30.142L21.614 27.271C21.351 27.009 20.956 26.932 20.605 27.075C20.227 27.23 20 27.565 20 27.939V32Z" fill="white"/>
</g>
<defs>
<clipPath id="clip0_4321_149845">
<rect width="32" height="32" fill="white"/>
</clipPath>
</defs>
</svg>
