<svg width="32" height="32" viewBox="0 0 32 32" fill="none" xmlns="http://www.w3.org/2000/svg">
<g clip-path="url(#clip0_4321_149003)">
<path fill-rule="evenodd" clip-rule="evenodd" d="M16 2C8.28 2 2 8.28 2 16C2 23.72 8.28 30 16 30C23.72 30 30 23.72 30 16C30 8.28 23.72 2 16 2ZM16 32C7.178 32 0 24.822 0 16C0 7.178 7.178 0 16 0C24.822 0 32 7.178 32 16C32 24.822 24.822 32 16 32Z" fill="white"/>
<path fill-rule="evenodd" clip-rule="evenodd" d="M28 16H26C26 10.486 21.514 6 16 6C10.486 6 6 10.486 6 16H4C4 9.383 9.383 4 16 4C22.617 4 28 9.383 28 16Z" fill="#48EFCF"/>
<path fill-rule="evenodd" clip-rule="evenodd" d="M16 18C14.897 18 14 17.103 14 16C14 14.897 14.897 14 16 14C17.103 14 18 14.897 18 16C18 17.103 17.103 18 16 18ZM21.707 11.707L20.293 10.293L18.019 12.566C17.424 12.216 16.74 12 16 12C13.794 12 12 13.794 12 16C12 18.206 13.794 20 16 20C18.206 20 20 18.206 20 16C20 15.261 19.785 14.576 19.433 13.98L21.707 11.707Z" fill="white"/>
</g>
<defs>
<clipPath id="clip0_4321_149003">
<rect width="32" height="32" fill="white"/>
</clipPath>
</defs>
</svg>
