<svg width="32" height="32" viewBox="0 0 32 32" fill="none" xmlns="http://www.w3.org/2000/svg">
<path fill-rule="evenodd" clip-rule="evenodd" d="M4 6.81635V12.0713C4 19.9353 8.697 26.8694 16 29.8403C23.303 26.8694 28 19.9353 28 12.0713V6.81635L16 2.20135L4 6.81635ZM16 31.9874L15.641 31.8493C7.354 28.6623 2 20.8983 2 12.0713V5.44335L16 0.0583496L30 5.44335V12.0713C30 20.8983 24.646 28.6623 16.359 31.8493L16 31.9874Z" fill="white"/>
<path fill-rule="evenodd" clip-rule="evenodd" d="M11 23H13V18H11V23Z" fill="#48EFCF"/>
<path fill-rule="evenodd" clip-rule="evenodd" d="M12 14C11.448 14 11 13.552 11 13C11 12.448 11.448 12 12 12C12.552 12 13 12.448 13 13C13 13.552 12.552 14 12 14ZM13 10.185V7H11V10.185C9.839 10.599 9 11.698 9 13C9 14.654 10.346 16 12 16C13.654 16 15 14.654 15 13C15 11.698 14.161 10.599 13 10.185Z" fill="#48EFCF"/>
<path fill-rule="evenodd" clip-rule="evenodd" d="M19 12H21V7H19V12Z" fill="#48EFCF"/>
<path fill-rule="evenodd" clip-rule="evenodd" d="M20 18C19.448 18 19 17.552 19 17C19 16.448 19.448 16 20 16C20.552 16 21 16.448 21 17C21 17.552 20.552 18 20 18ZM23 17C23 15.346 21.654 14 20 14C18.346 14 17 15.346 17 17C17 18.302 17.839 19.401 19 19.815V23H21V19.815C22.161 19.401 23 18.302 23 17Z" fill="#48EFCF"/>
</svg>
