<svg width="32" height="32" viewBox="0 0 32 32" fill="none" xmlns="http://www.w3.org/2000/svg">
<path fill-rule="evenodd" clip-rule="evenodd" d="M31 31H5C2.79086 31 1 29.2091 1 27V1H3V27C3 28.1046 3.89543 29 5 29H31V31Z" fill="white"/>
<path d="M7 20H9V27H7V20Z" fill="white"/>
<path d="M17 12H19V27H17V12Z" fill="white"/>
<path d="M27 17H29V27H27V17Z" fill="white"/>
<path fill-rule="evenodd" clip-rule="evenodd" d="M25.92 6.84C26.4786 6.30157 27.2241 6.0005 28 6C29.6569 6 31 7.34315 31 9C31 10.6569 29.6569 12 28 12C26.3431 12 25 10.6569 25 9C25.0165 8.87797 25.0433 8.75755 25.08 8.64L20.08 6.16C19.5214 6.69843 18.7759 6.9995 18 7C17.4388 6.99095 16.8914 6.82465 16.42 6.52L10.82 11C10.9378 11.3203 10.9987 11.6587 11 12C11 13.6569 9.65685 15 8 15C6.34315 15 5 13.6569 5 12C5 10.3431 6.34315 9 8 9C8.55925 9.00307 9.1065 9.16239 9.58 9.46L15.18 5C15.0622 4.67969 15.0013 4.34127 15 4C15 2.34315 16.3431 1 18 1C19.6569 1 21 2.34315 21 4C21.0098 4.1198 21.0098 4.2402 21 4.36L25.92 6.84ZM7 12C7 12.5523 7.44772 13 8 13C8.55228 13 9 12.5523 9 12C9 11.4477 8.55228 11 8 11C7.44772 11 7 11.4477 7 12ZM18 5C17.4477 5 17 4.55228 17 4C17 3.44772 17.4477 3 18 3C18.5523 3 19 3.44772 19 4C19 4.26522 18.8946 4.51957 18.7071 4.70711C18.5196 4.89464 18.2652 5 18 5ZM27 9C27 9.55229 27.4477 10 28 10C28.5523 10 29 9.55229 29 9C29 8.44772 28.5523 8 28 8C27.4477 8 27 8.44772 27 9Z" fill="#48EFCF"/>
</svg>
