<svg width="64" height="64" viewBox="0 0 64 64" fill="none" xmlns="http://www.w3.org/2000/svg">
<g clip-path="url(#clip0_0_6619)">
<rect width="64" height="64" fill="#101C3F"/>
<path fill-rule="evenodd" clip-rule="evenodd" d="M37.0625 32C37.0625 34.796 34.7955 37.062 32.0005 37.062C29.2045 37.062 26.9375 34.796 26.9375 32C26.9375 29.204 29.2045 26.938 32.0005 26.938C34.7955 26.938 37.0625 29.204 37.0625 32Z" fill="white"/>
<path fill-rule="evenodd" clip-rule="evenodd" d="M38.2227 24.1045C38.2657 24.1385 38.3097 24.1735 38.3527 24.2085C39.2907 24.9725 40.5857 25.1205 41.6777 24.5975L55.1717 18.1415C51.8747 12.6405 46.6757 8.41649 40.4827 6.36749L37.1187 20.9425C36.8457 22.1215 37.2717 23.3555 38.2227 24.1045Z" fill="#F04E98"/>
<path fill-rule="evenodd" clip-rule="evenodd" d="M32.1855 44.1836C31.9185 43.0026 30.9995 42.0756 29.8185 41.8136C25.3165 40.8156 21.9375 36.7986 21.9375 31.9996C21.9375 27.1826 25.3415 23.1526 29.8705 22.1736C31.0525 21.9186 31.9755 20.9946 32.2475 19.8156L35.6105 5.2476C34.4285 5.0896 33.2245 4.9996 31.9995 4.9996C17.0875 4.9996 4.99951 17.0886 4.99951 31.9996C4.99951 46.9116 17.0875 58.9996 31.9995 58.9996C33.1785 58.9996 34.3365 58.9156 35.4745 58.7696L32.1855 44.1836Z" fill="#0B64DD"/>
<path fill-rule="evenodd" clip-rule="evenodd" d="M57.2852 41.478C58.3902 38.528 59.0002 35.336 59.0002 32C59.0002 28.713 58.4112 25.563 57.3352 22.649L43.7522 29.148C42.6532 29.674 41.9622 30.786 41.9612 32.004V32.054C41.9582 33.27 42.6432 34.381 43.7372 34.911L57.2852 41.478Z" fill="white"/>
<path fill-rule="evenodd" clip-rule="evenodd" d="M38.3104 39.8237C38.2674 39.8577 38.2244 39.8917 38.1814 39.9257C37.2274 40.6697 36.7954 41.9007 37.0614 43.0817L40.3534 57.6767C46.5594 55.6577 51.7814 51.4597 55.1044 45.9777L41.6394 39.4507C40.5494 38.9227 39.2524 39.0637 38.3104 39.8237Z" fill="#F04E98"/>
</g>
<defs>
<clipPath id="clip0_0_6619">
<rect width="64" height="64" fill="white"/>
</clipPath>
</defs>
</svg>
