<svg width="64" height="64" viewBox="0 0 64 64" fill="none" xmlns="http://www.w3.org/2000/svg">
<g clip-path="url(#clip0_0_6571)">
<rect width="64" height="64" fill="#101C3F"/>
<path fill-rule="evenodd" clip-rule="evenodd" d="M32.4091 27.8413L26.4421 33.8073C29.4961 36.8613 33.7151 38.7503 38.3751 38.7503C43.0351 38.7503 47.2541 36.8613 50.3071 33.8073L44.3411 27.8413C41.0461 24.5463 35.7041 24.5463 32.4091 27.8413Z" fill="white"/>
<path fill-rule="evenodd" clip-rule="evenodd" d="M28.873 24.3057C31.411 21.7677 34.786 20.3697 38.375 20.3697C41.964 20.3697 45.339 21.7677 47.877 24.3057L53.303 29.7317C54.541 27.3847 55.25 24.7137 55.25 21.8747C55.25 12.5557 47.695 4.99969 38.375 4.99969C29.055 4.99969 21.5 12.5557 21.5 21.8747C21.5 24.7137 22.209 27.3847 23.447 29.7317L28.873 24.3057Z" fill="#FEC514"/>
<path fill-rule="evenodd" clip-rule="evenodd" d="M38.375 38.75C33.715 38.75 29.496 36.861 26.442 33.808L8 52.25V59H55.25V38.75L50.308 33.808C47.254 36.861 43.035 38.75 38.375 38.75Z" fill="#F04E98"/>
</g>
<defs>
<clipPath id="clip0_0_6571">
<rect width="64" height="64" fill="white"/>
</clipPath>
</defs>
</svg>
