<svg width="32" height="32" viewBox="0 0 32 32" fill="none" xmlns="http://www.w3.org/2000/svg">
<g clip-path="url(#clip0_4323_152641)">
<path fill-rule="evenodd" clip-rule="evenodd" d="M16 16H32V25H16V16ZM18 18V23H30V18H18Z" fill="white"/>
<path fill-rule="evenodd" clip-rule="evenodd" d="M29.8781 0H14V6H20V7V8V10.3913L19 10.3913C17.3431 10.3913 16 11.7345 16 13.3913V29C16 30.6569 17.3431 32 19 32H29C30.6569 32 32 30.6569 32 29V13.3913C32 11.7345 30.6569 10.3913 29 10.3913H27.9167V7.00003H27.9002C28.246 6.40221 28.8924 6 29.6327 6H31.2556L29.8781 0ZM25.7587 7.00002C26.1318 5.55024 27.2973 4.41856 28.766 4.09414L28.2852 2H16V4H22V7.00001L25.7587 7.00002ZM22 12.3913V9.00001L25.9167 9.00002V12.3913H29C29.5523 12.3913 30 12.839 30 13.3913V29C30 29.5523 29.5523 30 29 30H19C18.4477 30 18 29.5523 18 29V13.3913C18 12.839 18.4477 12.3913 19 12.3913L22 12.3913Z" fill="white"/>
<path fill-rule="evenodd" clip-rule="evenodd" d="M11 4L11 1L13 1L13 4L11 4Z" fill="white"/>
<path fill-rule="evenodd" clip-rule="evenodd" d="M11 8H4V11H3.99997V14.6734C3.99997 14.9893 3.85071 15.2866 3.59738 15.4753L1.91685 16.7273C1.15688 17.2934 0.709106 18.1854 0.709106 19.1331V30C0.709106 31.1046 1.60454 32 2.70911 32H12.7091C13.8137 32 14.7091 31.1046 14.7091 30V19.4406C14.7091 18.492 14.2604 17.5993 13.4992 17.0332L11.4033 15.4747C11.1496 15.2861 11 14.9885 11 14.6723V13V11V8ZM9 11V10H6V11H9ZM9 13H5.99997V14.6734C5.99997 15.6211 5.55219 16.513 4.79222 17.0792L3.11169 18.3311C2.85836 18.5199 2.70911 18.8172 2.70911 19.1331V30H12.7091V19.4406C12.7091 19.1244 12.5596 18.8269 12.3058 18.6382L10.2099 17.0797C9.44866 16.5136 9 15.6209 9 14.6723V13Z" fill="white"/>
<path fill-rule="evenodd" clip-rule="evenodd" d="M7.5 22C6.67157 22 6 22.6716 6 23.5C6 24.3284 6.67157 25 7.5 25C8.32843 25 9 24.3284 9 23.5C9 22.6716 8.32843 22 7.5 22ZM4 23.5C4 21.567 5.567 20 7.5 20C9.433 20 11 21.567 11 23.5C11 25.433 9.433 27 7.5 27C5.567 27 4 25.433 4 23.5Z" fill="white"/>
</g>
<defs>
<clipPath id="clip0_4323_152641">
<rect width="32" height="32" fill="white"/>
</clipPath>
</defs>
</svg>
